<svg>
    <symbol id="burger" viewBox="0 0 24 24" xmlns="http://www.w3.org/2000/svg">
        <path d="M4 18L20 18" stroke="#000000" stroke-width="2" stroke-linecap="round"/>
        <path d="M4 12L20 12" stroke="#000000" stroke-width="2" stroke-linecap="round"/>
        <path d="M4 6L20 6" stroke="#000000" stroke-width="2" stroke-linecap="round"/>
    </symbol>

    <symbol id="person" xmlns="http://www.w3.org/2000/svg" fill="currentColor" viewBox="0 0 16 16">
        <path d="M3 14s-1 0-1-1 1-4 6-4 6 3 6 4-1 1-1 1zm5-6a3 3 0 1 0 0-6 3 3 0 0 0 0 6"/>
    </symbol>

    <symbol id="market" width="15" height="15" viewBox="0 0 15 15" fill="none" xmlns="http://www.w3.org/2000/svg">
        <path d="M10.9375 4.06202H10.9319M8.11378 7.62827L6.25003 8.74952M6.25003 8.74952L4.38753 9.87077M6.25003 8.74952L6.2619 10.937M6.25003 8.74952L6.23878 6.56202M6.25003 8.74952L8.12503 9.81577M6.25003 8.74952L4.37503 7.68265M6.74753 1.82015C6.94006 1.62762 7.17077 1.47755 7.42481 1.3796C7.67885 1.28164 7.95059 1.23797 8.22253 1.2514L11.7244 1.42452C12.2073 1.44872 12.664 1.65148 13.0059 1.99345C13.3478 2.33542 13.5504 2.79221 13.5744 3.27515L13.7475 6.77765C13.7609 7.04948 13.7172 7.3211 13.6192 7.57503C13.5212 7.82896 13.3712 8.05957 13.1788 8.25202L8.44253 12.9883C7.95501 13.4753 7.29411 13.7488 6.60503 13.7488C5.91594 13.7488 5.25504 13.4753 4.76753 12.9883L2.01128 10.232C1.52428 9.74451 1.25073 9.08361 1.25073 8.39452C1.25073 7.70544 1.52428 7.04454 2.01128 6.55702L6.74753 1.82015Z"
              stroke="#1B35E0" stroke-width="1.5" stroke-linecap="round" stroke-linejoin="round"/>
    </symbol>

    <symbol id="facebook" xmlns="http://www.w3.org/2000/svg" fill="none" viewBox="0 0 16 16">
        <path d="M16 8.049c0-4.446-3.582-8.05-8-8.05C3.58 0-.002 3.603-.002 8.05c0 4.017 2.926 7.347 6.75 7.951v-5.625h-2.03V8.05H6.75V6.275c0-2.017 1.195-3.131 3.022-3.131.876 0 1.791.157 1.791.157v1.98h-1.009c-.993 0-1.303.621-1.303 1.258v1.51h2.218l-.354 2.326H9.25V16c3.824-.604 6.75-3.934 6.75-7.951" fill="#103EAE"/>
    </symbol>

    <symbol id="instagram" xmlns="http://www.w3.org/2000/svg" fill="none" viewBox="0 0 16 16">
        <path d="M8 0C5.829 0 5.556.01 4.703.048 3.85.088 3.269.222 2.76.42a3.9 3.9 0 0 0-1.417.923A3.9 3.9 0 0 0 .42 2.76C.222 3.268.087 3.85.048 4.7.01 5.555 0 5.827 0 8.001c0 2.172.01 2.444.048 3.297.04.852.174 1.433.372 1.942.205.526.478.972.923 1.417.444.445.89.719 1.416.923.51.198 1.09.333 1.942.372C5.555 15.99 5.827 16 8 16s2.444-.01 3.298-.048c.851-.04 1.434-.174 1.943-.372a3.9 3.9 0 0 0 1.416-.923c.445-.445.718-.891.923-1.417.197-.509.332-1.09.372-1.942C15.99 10.445 16 10.173 16 8s-.01-2.445-.048-3.299c-.04-.851-.175-1.433-.372-1.941a3.9 3.9 0 0 0-.923-1.417A3.9 3.9 0 0 0 13.24.42c-.51-.198-1.092-.333-1.943-.372C10.443.01 10.172 0 7.998 0zm-.717 1.442h.718c2.136 0 2.389.007 3.232.046.78.035 1.204.166 1.486.275.373.145.64.319.92.599s.453.546.598.92c.11.281.24.705.275 1.485.039.843.047 1.096.047 3.231s-.008 2.389-.047 3.232c-.035.78-.166 1.203-.275 1.485a2.5 2.5 0 0 1-.599.919c-.28.28-.546.453-.92.598-.28.11-.704.24-1.485.276-.843.038-1.096.047-3.232.047s-2.39-.009-3.233-.047c-.78-.036-1.203-.166-1.485-.276a2.5 2.5 0 0 1-.92-.598 2.5 2.5 0 0 1-.6-.92c-.109-.281-.24-.705-.275-1.485-.038-.843-.046-1.096-.046-3.233s.008-2.388.046-3.231c.036-.78.166-1.204.276-1.486.145-.373.319-.64.599-.92s.546-.453.92-.598c.282-.11.705-.24 1.485-.276.738-.034 1.024-.044 2.515-.045zm4.988 1.328a.96.96 0 1 0 0 1.92.96.96 0 0 0 0-1.92m-4.27 1.122a4.109 4.109 0 1 0 0 8.217 4.109 4.109 0 0 0 0-8.217m0 1.441a2.667 2.667 0 1 1 0 5.334 2.667 2.667 0 0 1 0-5.334" fill="#103EAE"/>
    </symbol>

    <symbol id="mail" width="13" height="10" viewBox="0 0 13 10" fill="none" xmlns="http://www.w3.org/2000/svg">
        <path d="M1.25 10C0.90625 10 0.612083 9.87771 0.3675 9.63313C0.122917 9.38854 0.000416667 9.09417 0 8.75V1.25C0 0.90625 0.1225 0.612083 0.3675 0.3675C0.6125 0.122917 0.906667 0.000416667 1.25 0H11.25C11.5938 0 11.8881 0.1225 12.1331 0.3675C12.3781 0.6125 12.5004 0.906667 12.5 1.25V8.75C12.5 9.09375 12.3777 9.38813 12.1331 9.63313C11.8885 9.87813 11.5942 10.0004 11.25 10H1.25ZM6.25 5.625L1.25 2.5V8.75H11.25V2.5L6.25 5.625ZM6.25 4.375L11.25 1.25H1.25L6.25 4.375ZM1.25 2.5V1.25V8.75V2.5Z"
              fill="#1041B7"/>
    </symbol>

    <symbol id="phone" width="12" height="12" viewBox="0 0 12 12" fill="none" xmlns="http://www.w3.org/2000/svg">
        <path d="M2.2125 1.25C2.25 1.80625 2.34375 2.35 2.49375 2.86875L1.74375 3.61875C1.4875 2.86875 1.325 2.075 1.26875 1.25H2.2125ZM8.375 8.7625C8.90625 8.9125 9.45 9.00625 10 9.04375V9.975C9.175 9.91875 8.38125 9.75625 7.625 9.50625L8.375 8.7625ZM2.8125 0H0.625C0.28125 0 0 0.28125 0 0.625C0 6.49375 4.75625 11.25 10.625 11.25C10.9688 11.25 11.25 10.9688 11.25 10.625V8.44375C11.25 8.1 10.9688 7.81875 10.625 7.81875C9.85 7.81875 9.09375 7.69375 8.39375 7.4625C8.33187 7.43939 8.26601 7.42877 8.2 7.43125C8.0375 7.43125 7.88125 7.49375 7.75625 7.6125L6.38125 8.9875C4.60967 8.08146 3.16854 6.64033 2.2625 4.86875L3.6375 3.49375C3.8125 3.31875 3.8625 3.075 3.79375 2.85625C3.55707 2.13618 3.43681 1.38296 3.4375 0.625C3.4375 0.28125 3.15625 0 2.8125 0Z"
              fill="#103EAE"/>
    </symbol>
     <symbol id="home" viewBox="0 0 16 16" fill="none" stroke="black" stroke-width="2" stroke-linecap="round" stroke-linejoin="round">
        <path d="m3 9 9-7 9 7v11a2 2 0 0 1-2 2H5a2 2 0 0 1-2-2z"/>
        <polyline points="9,22 9,12 15,12 15,22"/>
      </symbol>

      <!-- Icône Cart -->
      <symbol id="cart" viewBox="0 0 24 24" fill="none" stroke="currentColor" stroke-width="2" stroke-linecap="round" stroke-linejoin="round">
        <circle cx="8" cy="21" r="1"/>
        <circle cx="19" cy="21" r="1"/>
        <path d="M2.05 2.05h2l2.66 12.42a2 2 0 0 0 2 1.58h9.78a2 2 0 0 0 1.95-1.57L21.16 7H7"/>
      </symbol>

      <!-- Icône Search -->
      <symbol id="search" viewBox="0 0 24 24" fill="none" stroke="currentColor" stroke-width="2" stroke-linecap="round" stroke-linejoin="round">
        <circle cx="11" cy="11" r="8"/>
        <path d="m21 21-4.35-4.35"/>
      </symbol>

      <!-- Icône User -->
      <symbol id="user" viewBox="0 0 24 24" fill="none" stroke="currentColor" stroke-width="2" stroke-linecap="round" stroke-linejoin="round">
        <path d="M20 21v-2a4 4 0 0 0-4-4H8a4 4 0 0 0-4 4v2"/>
        <circle cx="12" cy="7" r="4"/>
      </symbol>

</svg>

