<svg>
    <symbol id="burger" viewBox="0 0 24 24" xmlns="http://www.w3.org/2000/svg">
        <path d="M4 18L20 18" stroke="#000000" stroke-width="2" stroke-linecap="round"/>
        <path d="M4 12L20 12" stroke="#000000" stroke-width="2" stroke-linecap="round"/>
        <path d="M4 6L20 6" stroke="#000000" stroke-width="2" stroke-linecap="round"/>
    </symbol>

    <symbol id="person" xmlns="http://www.w3.org/2000/svg" fill="currentColor" viewBox="0 0 16 16">
        <path d="M3 14s-1 0-1-1 1-4 6-4 6 3 6 4-1 1-1 1zm5-6a3 3 0 1 0 0-6 3 3 0 0 0 0 6"/>
    </symbol>

    <symbol id="market" width="15" height="15" viewBox="0 0 15 15" fill="none" xmlns="http://www.w3.org/2000/svg">
        <path d="M10.9375 4.06202H10.9319M8.11378 7.62827L6.25003 8.74952M6.25003 8.74952L4.38753 9.87077M6.25003 8.74952L6.2619 10.937M6.25003 8.74952L6.23878 6.56202M6.25003 8.74952L8.12503 9.81577M6.25003 8.74952L4.37503 7.68265M6.74753 1.82015C6.94006 1.62762 7.17077 1.47755 7.42481 1.3796C7.67885 1.28164 7.95059 1.23797 8.22253 1.2514L11.7244 1.42452C12.2073 1.44872 12.664 1.65148 13.0059 1.99345C13.3478 2.33542 13.5504 2.79221 13.5744 3.27515L13.7475 6.77765C13.7609 7.04948 13.7172 7.3211 13.6192 7.57503C13.5212 7.82896 13.3712 8.05957 13.1788 8.25202L8.44253 12.9883C7.95501 13.4753 7.29411 13.7488 6.60503 13.7488C5.91594 13.7488 5.25504 13.4753 4.76753 12.9883L2.01128 10.232C1.52428 9.74451 1.25073 9.08361 1.25073 8.39452C1.25073 7.70544 1.52428 7.04454 2.01128 6.55702L6.74753 1.82015Z"
              stroke="#1B35E0" stroke-width="1.5" stroke-linecap="round" stroke-linejoin="round"/>
    </symbol>

    <symbol id="facebook" xmlns="http://www.w3.org/2000/svg" fill="none" viewBox="0 0 16 16">
        <path d="M16 8.049c0-4.446-3.582-8.05-8-8.05C3.58 0-.002 3.603-.002 8.05c0 4.017 2.926 7.347 6.75 7.951v-5.625h-2.03V8.05H6.75V6.275c0-2.017 1.195-3.131 3.022-3.131.876 0 1.791.157 1.791.157v1.98h-1.009c-.993 0-1.303.621-1.303 1.258v1.51h2.218l-.354 2.326H9.25V16c3.824-.604 6.75-3.934 6.75-7.951" fill="#103EAE"/>
    </symbol>

    <symbol id="instagram" xmlns="http://www.w3.org/2000/svg" fill="none" viewBox="0 0 16 16">
        <path d="M8 0C5.829 0 5.556.01 4.703.048 3.85.088 3.269.222 2.76.42a3.9 3.9 0 0 0-1.417.923A3.9 3.9 0 0 0 .42 2.76C.222 3.268.087 3.85.048 4.7.01 5.555 0 5.827 0 8.001c0 2.172.01 2.444.048 3.297.04.852.174 1.433.372 1.942.205.526.478.972.923 1.417.444.445.89.719 1.416.923.51.198 1.09.333 1.942.372C5.555 15.99 5.827 16 8 16s2.444-.01 3.298-.048c.851-.04 1.434-.174 1.943-.372a3.9 3.9 0 0 0 1.416-.923c.445-.445.718-.891.923-1.417.197-.509.332-1.09.372-1.942C15.99 10.445 16 10.173 16 8s-.01-2.445-.048-3.299c-.04-.851-.175-1.433-.372-1.941a3.9 3.9 0 0 0-.923-1.417A3.9 3.9 0 0 0 13.24.42c-.51-.198-1.092-.333-1.943-.372C10.443.01 10.172 0 7.998 0zm-.717 1.442h.718c2.136 0 2.389.007 3.232.046.78.035 1.204.166 1.486.275.373.145.64.319.92.599s.453.546.598.92c.11.281.24.705.275 1.485.039.843.047 1.096.047 3.231s-.008 2.389-.047 3.232c-.035.78-.166 1.203-.275 1.485a2.5 2.5 0 0 1-.599.919c-.28.28-.546.453-.92.598-.28.11-.704.24-1.485.276-.843.038-1.096.047-3.232.047s-2.39-.009-3.233-.047c-.78-.036-1.203-.166-1.485-.276a2.5 2.5 0 0 1-.92-.598 2.5 2.5 0 0 1-.6-.92c-.109-.281-.24-.705-.275-1.485-.038-.843-.046-1.096-.046-3.233s.008-2.388.046-3.231c.036-.78.166-1.204.276-1.486.145-.373.319-.64.599-.92s.546-.453.92-.598c.282-.11.705-.24 1.485-.276.738-.034 1.024-.044 2.515-.045zm4.988 1.328a.96.96 0 1 0 0 1.92.96.96 0 0 0 0-1.92m-4.27 1.122a4.109 4.109 0 1 0 0 8.217 4.109 4.109 0 0 0 0-8.217m0 1.441a2.667 2.667 0 1 1 0 5.334 2.667 2.667 0 0 1 0-5.334" fill="#103EAE"/>
    </symbol>

    <symbol id="mail" width="13" height="10" viewBox="0 0 13 10" fill="none" xmlns="http://www.w3.org/2000/svg">
        <path d="M1.25 10C0.90625 10 0.612083 9.87771 0.3675 9.63313C0.122917 9.38854 0.000416667 9.09417 0 8.75V1.25C0 0.90625 0.1225 0.612083 0.3675 0.3675C0.6125 0.122917 0.906667 0.000416667 1.25 0H11.25C11.5938 0 11.8881 0.1225 12.1331 0.3675C12.3781 0.6125 12.5004 0.906667 12.5 1.25V8.75C12.5 9.09375 12.3777 9.38813 12.1331 9.63313C11.8885 9.87813 11.5942 10.0004 11.25 10H1.25ZM6.25 5.625L1.25 2.5V8.75H11.25V2.5L6.25 5.625ZM6.25 4.375L11.25 1.25H1.25L6.25 4.375ZM1.25 2.5V1.25V8.75V2.5Z"
              fill="#1041B7"/>
    </symbol>

    <symbol id="phone" width="12" height="12" viewBox="0 0 12 12" fill="none" xmlns="http://www.w3.org/2000/svg">
        <path d="M2.2125 1.25C2.25 1.80625 2.34375 2.35 2.49375 2.86875L1.74375 3.61875C1.4875 2.86875 1.325 2.075 1.26875 1.25H2.2125ZM8.375 8.7625C8.90625 8.9125 9.45 9.00625 10 9.04375V9.975C9.175 9.91875 8.38125 9.75625 7.625 9.50625L8.375 8.7625ZM2.8125 0H0.625C0.28125 0 0 0.28125 0 0.625C0 6.49375 4.75625 11.25 10.625 11.25C10.9688 11.25 11.25 10.9688 11.25 10.625V8.44375C11.25 8.1 10.9688 7.81875 10.625 7.81875C9.85 7.81875 9.09375 7.69375 8.39375 7.4625C8.33187 7.43939 8.26601 7.42877 8.2 7.43125C8.0375 7.43125 7.88125 7.49375 7.75625 7.6125L6.38125 8.9875C4.60967 8.08146 3.16854 6.64033 2.2625 4.86875L3.6375 3.49375C3.8125 3.31875 3.8625 3.075 3.79375 2.85625C3.55707 2.13618 3.43681 1.38296 3.4375 0.625C3.4375 0.28125 3.15625 0 2.8125 0Z"
              fill="#103EAE"/>
    </symbol>

    <symbol id="visa" width="65" height="37" viewBox="0 0 65 37" fill="none" xmlns="http://www.w3.org/2000/svg">
        <path d="M60.615 1H4.599C2.61133 1 1 2.38336 1 4.08983V32.8641C1 34.5706 2.61133 35.9539 4.599 35.9539H60.615C62.6027 35.9539 64.214 34.5706 64.214 32.8641V4.08983C64.214 2.38336 62.6027 1 60.615 1Z" fill="white" stroke="black" stroke-width="0.8" stroke-linecap="round" stroke-linejoin="round"/>
        <path fill-rule="evenodd" clip-rule="evenodd" d="M27.0381 11.9315L24.5351 25.1442H28.5411L31.0461 11.9315H27.0381ZM21.1641 11.9315L17.3441 21.019L16.8921 19.0616L16.7921 18.6246C15.9649 17.1202 14.7495 15.7972 13.2381 14.7561C12.6401 14.3457 12.0381 13.9954 11.4551 13.6966L14.9271 25.1442H19.1011L25.4761 11.9315H21.1641ZM36.8001 15.6C36.8001 14.1062 40.7021 14.2976 42.4171 15.1089L42.9891 12.2715C42.9891 12.2715 41.2241 11.6954 39.3851 11.6954C37.3971 11.6954 32.6751 12.4423 32.6751 16.0687C32.6751 19.4831 38.2171 19.5252 38.2171 21.3178C38.2171 23.1095 33.2471 22.7893 31.6071 21.6586L31.0101 24.6248C31.0101 24.6248 32.7991 25.3717 35.5331 25.3717C38.2671 25.3717 42.3931 24.1552 42.3931 20.8482C42.3931 17.4132 36.8001 17.093 36.8001 15.6ZM53.1501 11.9315H49.9291C48.4411 11.9315 48.0791 12.9163 48.0791 12.9163L42.1041 25.1442H46.2801L47.1151 23.1816H52.2091L52.6791 25.1442H56.3581L53.1501 11.9315ZM48.2701 20.4704L50.3751 15.5253L51.5601 20.4704H48.2701Z" fill="black"/>
        <path fill-rule="evenodd" clip-rule="evenodd" d="M15.5988 13.1756C15.5988 13.1756 15.4328 11.9822 13.6628 11.9822H7.22979L7.15479 12.2072C7.15479 12.2072 10.2468 12.748 13.2128 14.7759C16.0478 16.7136 16.9728 19.1286 16.9728 19.1286L15.5988 13.1756Z" fill="black"/>
    </symbol>


    <symbol id="mastercard" width="65" height="37" viewBox="0 0 65 37" fill="none" xmlns="http://www.w3.org/2000/svg">
        <path d="M60.615 1H4.599C2.61133 1 1 2.38336 1 4.08983V32.8641C1 34.5706 2.61133 35.9539 4.599 35.9539H60.615C62.6027 35.9539 64.214 34.5706 64.214 32.8641V4.08983C64.214 2.38336 62.6027 1 60.615 1Z" fill="#F9F9F9" stroke="black" stroke-width="0.8" stroke-linecap="round" stroke-linejoin="round"/>
        <path fill-rule="evenodd" clip-rule="evenodd" d="M35.5099 15.0797C35.5099 20.0935 30.7749 24.1595 24.9339 24.1595C19.0919 24.1595 14.3569 20.0944 14.3569 15.0797C14.3569 10.0643 19.0919 5.99915 24.9339 5.99915C30.7739 5.99915 35.5099 10.0643 35.5099 15.0797Z" fill="#F72000"/>
        <path fill-rule="evenodd" clip-rule="evenodd" d="M50.6559 15.0797C50.6559 20.0935 45.921 24.1595 40.08 24.1595C34.238 24.1595 29.5029 20.0944 29.5029 15.0797C29.5029 10.0643 34.238 5.99915 40.08 5.99915C45.92 5.99915 50.6559 10.0643 50.6559 15.0797Z" fill="#FFBB00"/>
        <path fill-rule="evenodd" clip-rule="evenodd" d="M35.5099 15.0797C35.5099 20.0935 30.7749 24.1595 24.9339 24.1595C19.0919 24.1595 14.3569 20.0944 14.3569 15.0797C14.3569 10.0643 19.0919 5.99915 24.9339 5.99915C30.7739 5.99915 35.5099 10.0643 35.5099 15.0797Z" fill="#F72000" fill-opacity="0.378"/>
        <path d="M7.21924 26.2268H9.63655L10.5693 30.3529L11.4985 26.2268H13.908V33.0087H12.407V27.8367L11.2434 33.0087H9.88383L8.72377 27.8367V33.0087H7.21924V26.2268ZM16.472 29.687L14.8937 29.497C14.9536 29.1823 15.0395 28.935 15.1514 28.7549C15.2642 28.5738 15.4256 28.4185 15.6364 28.2849C15.7874 28.1899 15.9956 28.1157 16.2611 28.0632C16.5258 28.0108 16.8121 27.9841 17.1201 27.9841C17.6155 27.9841 18.0138 28.0158 18.3131 28.0791C18.6134 28.1424 18.8632 28.274 19.0637 28.4749C19.2042 28.6134 19.3153 28.8103 19.396 29.0646C19.4775 29.3189 19.5175 29.5623 19.5175 29.7929V31.9628C19.5175 32.1943 19.5313 32.3754 19.5565 32.507C19.5825 32.6376 19.6381 32.8038 19.7248 33.0077H18.1752C18.1273 32.9157 18.0866 32.819 18.0537 32.7187C18.0282 32.6166 18.0093 32.5124 17.9973 32.4071C17.7804 32.6445 17.5652 32.8137 17.3518 32.9157C17.0273 33.0581 16.6816 33.1273 16.334 33.1195C15.8204 33.1195 15.4299 32.9839 15.1635 32.7118C15.0363 32.5884 14.9346 32.4345 14.8656 32.261C14.7966 32.0876 14.7621 31.8989 14.7644 31.7085C14.7644 31.3355 14.8599 31.0287 15.0516 30.7883C15.2442 30.5468 15.5982 30.3687 16.1145 30.251C16.5184 30.1636 16.9203 30.0643 17.3197 29.9531C17.5036 29.8958 17.698 29.8206 17.9036 29.7285C17.9036 29.497 17.862 29.3347 17.7778 29.2427C17.6945 29.1497 17.547 29.1042 17.3353 29.1042C17.0654 29.1042 16.8624 29.1536 16.7279 29.2526C16.6221 29.3288 16.537 29.4743 16.472 29.687ZM17.9036 30.6765C17.6706 30.7711 17.4337 30.853 17.1939 30.9218C16.8581 31.0238 16.6464 31.1237 16.557 31.2227C16.514 31.2662 16.4795 31.3195 16.4556 31.3791C16.4317 31.4388 16.419 31.5034 16.4182 31.569C16.4182 31.7174 16.4642 31.8391 16.5553 31.9331C16.6455 32.0271 16.7782 32.0736 16.9544 32.0736C17.1383 32.0736 17.3101 32.0231 17.4672 31.9212C17.6094 31.8379 17.7268 31.7084 17.8047 31.5492C17.8706 31.4017 17.9036 31.2118 17.9036 30.9773V30.6765ZM20.2237 31.6481L21.8627 31.472C21.9304 31.6946 22.025 31.8529 22.1465 31.9489C22.2679 32.0449 22.4302 32.0924 22.6332 32.0924C22.8554 32.0924 23.0271 32.038 23.1486 31.9301C23.1922 31.8972 23.228 31.8526 23.2528 31.8001C23.2777 31.7476 23.2907 31.6889 23.2909 31.6293C23.2909 31.4938 23.2284 31.3889 23.1044 31.3147C23.015 31.2622 22.7781 31.1979 22.3938 31.1207C21.8211 31.0069 21.422 30.9011 21.1998 30.8041C20.9743 30.7049 20.7786 30.5339 20.6359 30.3113C20.4842 30.084 20.4036 29.8054 20.4068 29.5198C20.4068 29.1962 20.4892 28.9172 20.6541 28.6827C20.8189 28.4482 21.0463 28.274 21.3352 28.1582C21.625 28.0425 22.012 27.9841 22.4996 27.9841C23.0133 27.9841 23.3933 28.0296 23.6371 28.1187C23.8818 28.2077 24.0866 28.3463 24.2497 28.5343C24.4137 28.7223 24.549 28.9775 24.6575 29.2981L23.0922 29.4743C23.0622 29.3352 22.9904 29.2127 22.8892 29.1279C22.7488 29.0256 22.5846 28.9739 22.418 28.9795C22.2315 28.9795 22.0961 29.0171 22.0102 29.0923C21.9712 29.1232 21.9393 29.1643 21.9171 29.2121C21.8949 29.26 21.8831 29.3133 21.8827 29.3674C21.8827 29.4881 21.9374 29.5791 22.0449 29.6405C22.1534 29.7018 22.3885 29.7573 22.7512 29.8067C23.2996 29.878 23.7083 29.9769 23.9764 30.1036C24.2436 30.2292 24.4484 30.4103 24.5907 30.6448C24.733 30.8783 24.8033 31.1366 24.8033 31.4166C24.8033 31.7006 24.7286 31.9766 24.5777 32.2448C24.4284 32.5129 24.1915 32.7267 23.8688 32.886C23.5451 33.0443 23.1052 33.1234 22.5482 33.1234C21.7612 33.1234 21.2007 32.9958 20.8667 32.7395C20.5349 32.4865 20.3041 32.0942 20.2246 31.6481H20.2237ZM27.5867 26.2258V28.0959H28.4951V29.4693H27.5867V31.2138C27.5867 31.4235 27.604 31.562 27.6387 31.6293C27.6934 31.7342 27.788 31.7876 27.9233 31.7876C28.0448 31.7876 28.2149 31.7471 28.4344 31.6669L28.5559 32.9661C28.1481 33.068 27.7663 33.1195 27.4123 33.1195C27.001 33.1195 26.6982 33.0591 26.503 32.9384C26.3079 32.8178 26.1553 32.6242 26.0709 32.3902C25.9781 32.1458 25.9321 31.7481 25.9321 31.1999V29.4693H25.323V28.0959H25.9312V27.1935L27.5867 26.2258ZM34.0603 31.0188H30.7502C30.7797 31.3216 30.8517 31.5462 30.9654 31.6946C31.0415 31.7982 31.1373 31.8807 31.2456 31.9359C31.3538 31.9911 31.4716 32.0176 31.5901 32.0132C31.7523 32.0132 31.9059 31.9677 32.0525 31.8747C32.1419 31.8154 32.2373 31.7124 32.3406 31.565L33.9666 31.7362C33.7184 32.2299 33.4182 32.5832 33.0668 32.7979C32.7146 33.0116 32.2105 33.1195 31.5536 33.1195C30.9827 33.1195 30.5341 33.0274 30.207 32.8444C29.8799 32.6603 29.6083 32.3694 29.3932 31.9697C29.1788 31.5699 29.0713 31.101 29.0713 30.5607C29.0713 29.7929 29.2865 29.1715 29.7177 28.6965C30.1489 28.2216 30.745 27.9841 31.5051 27.9841C32.1211 27.9841 32.6078 28.091 32.9653 28.3037C33.3219 28.5164 33.5935 28.8252 33.7809 29.2289C33.9666 29.6326 34.0603 30.159 34.0603 30.8061V31.0188ZM32.3814 30.1174C32.3484 29.7533 32.2625 29.4921 32.1237 29.3357C31.9849 29.1774 31.8009 29.0992 31.5736 29.0992C31.4513 29.0955 31.3301 29.126 31.2206 29.1881C31.1111 29.2502 31.0166 29.342 30.9454 29.4555C30.8448 29.6039 30.7805 29.8235 30.7545 30.1174H32.3814ZM34.8429 28.0959H36.3891V28.9004C36.5366 28.5521 36.6911 28.3126 36.849 28.181C37.0069 28.0504 37.203 27.9841 37.4355 27.9841C37.6785 27.9841 37.9448 28.0712 38.2337 28.2433L37.7236 29.5851C37.5283 29.4921 37.3748 29.4465 37.2611 29.4465C37.1612 29.4425 37.062 29.4686 36.9737 29.5221C36.8854 29.5756 36.8109 29.6546 36.7579 29.7513C36.5878 30.0383 36.5019 30.5745 36.5019 31.3612V33.0087H34.8429V28.0959ZM42.579 30.2371L44.1894 30.7922C44.0809 31.3067 43.9109 31.7372 43.6775 32.0825C43.4458 32.4288 43.1568 32.6891 42.8124 32.8642C42.4671 33.0403 42.028 33.1284 41.4953 33.1284C40.8497 33.1284 40.3214 33.0215 39.9118 32.8068C39.5023 32.5931 39.1483 32.2161 38.8506 31.6758C38.553 31.1366 38.4047 30.4459 38.4047 29.6039C38.4047 28.4808 38.6667 27.618 39.1899 27.0154C39.7131 26.4118 40.4532 26.111 41.4111 26.111C42.1599 26.111 42.7482 26.2832 43.1768 26.6295C43.6054 26.9749 43.9239 27.5052 44.1321 28.2206L42.5096 28.6322C42.4715 28.4714 42.4115 28.3185 42.3317 28.179C42.2335 28.0232 42.1041 27.8963 41.9543 27.809C41.7994 27.721 41.6284 27.6765 41.4554 27.6793C41.0389 27.6793 40.7196 27.8703 40.4975 28.2532C40.33 28.5362 40.2458 28.9825 40.2458 29.589C40.2458 30.342 40.3465 30.8575 40.5461 31.1366C40.7465 31.4156 41.0276 31.5561 41.3903 31.5561C41.7417 31.5561 42.0072 31.4433 42.1877 31.2177C42.3673 30.9931 42.4974 30.6656 42.5781 30.2381L42.579 30.2371ZM46.473 29.687L44.8948 29.497C44.9546 29.1823 45.0405 28.935 45.1525 28.7549C45.2653 28.5738 45.4267 28.4185 45.6375 28.2849C45.7885 28.1899 45.9967 28.1157 46.2622 28.0632C46.5269 28.0108 46.814 27.9841 47.1212 27.9841C47.6166 27.9841 48.0149 28.0158 48.3142 28.0791C48.6144 28.1424 48.8652 28.274 49.0647 28.4749C49.2053 28.6134 49.3164 28.8103 49.3979 29.0646C49.4786 29.3189 49.5194 29.5623 49.5194 29.7929V31.9628C49.5194 32.1943 49.5324 32.3754 49.5576 32.507C49.5836 32.6376 49.64 32.8038 49.7259 33.0077H48.1763C48.1283 32.9157 48.0877 32.819 48.0548 32.7187C48.0293 32.6166 48.0105 32.5124 47.9984 32.4071C47.7815 32.6445 47.5663 32.8137 47.3529 32.9157C47.0284 33.0581 46.6827 33.1273 46.3351 33.1195C45.8214 33.1195 45.431 32.9839 45.1646 32.7118C45.0374 32.5884 44.9357 32.4345 44.8667 32.261C44.7977 32.0876 44.7631 31.8989 44.7655 31.7085C44.7655 31.3355 44.8609 31.0287 45.0527 30.7883C45.2453 30.5468 45.5993 30.3687 46.1156 30.251C46.5195 30.1636 46.9214 30.0643 47.3208 29.9531C47.5047 29.8958 47.6991 29.8206 47.9047 29.7285C47.9047 29.497 47.863 29.3347 47.7789 29.2427C47.6956 29.1497 47.5481 29.1042 47.3364 29.1042C47.0665 29.1042 46.8635 29.1536 46.729 29.2526C46.6232 29.3288 46.5381 29.4743 46.473 29.687ZM47.9047 30.6765C47.6717 30.7711 47.4348 30.853 47.1949 30.9218C46.86 31.0238 46.6475 31.1237 46.5581 31.2227C46.5153 31.2663 46.4809 31.3196 46.4572 31.3793C46.4334 31.4389 46.4208 31.5035 46.4201 31.569C46.4201 31.7174 46.4652 31.8391 46.5563 31.9331C46.6466 32.0271 46.7802 32.0736 46.9555 32.0736C47.1394 32.0736 47.3112 32.0231 47.4691 31.9212C47.611 31.8377 47.7281 31.7083 47.8058 31.5492C47.8717 31.4017 47.9047 31.2118 47.9047 30.9773V30.6765ZM50.5337 28.0959H52.0781V28.9004C52.2274 28.5521 52.3818 28.3126 52.5388 28.181C52.6976 28.0504 52.8929 27.9841 53.1254 27.9841C53.3684 27.9841 53.6347 28.0712 53.9245 28.2433L53.4126 29.5851C53.2191 29.4921 53.0647 29.4465 52.951 29.4465C52.851 29.4425 52.7519 29.4686 52.6636 29.5221C52.5753 29.5756 52.5008 29.6546 52.4478 29.7513C52.2777 30.0383 52.1927 30.5745 52.1927 31.3612V33.0087H50.5337V28.0959ZM58.7357 26.2258V33.0087H57.1895V32.2824C56.9735 32.5901 56.7765 32.7989 56.5978 32.9057C56.36 33.0482 56.0945 33.1195 55.803 33.1195C55.2156 33.1195 54.7679 32.8652 54.4581 32.3556C54.1484 31.847 53.9931 31.2286 53.9931 30.5013C53.9931 29.687 54.1648 29.0636 54.5067 28.6312C54.8486 28.2008 55.2833 27.9841 55.8108 27.9841C56.0676 27.9841 56.301 28.0336 56.5102 28.1325C56.7201 28.2315 56.9058 28.3799 57.068 28.5768V26.2268L58.7357 26.2258ZM57.0802 30.5379C57.0802 30.152 57.0091 29.8651 56.865 29.6751C56.7991 29.5842 56.716 29.5114 56.6219 29.4623C56.5279 29.4131 56.4253 29.3888 56.3219 29.3911C56.2284 29.3904 56.1361 29.4146 56.0523 29.4619C55.9686 29.5091 55.8956 29.5781 55.8394 29.6632C55.7093 29.8453 55.6442 30.151 55.6442 30.5795C55.6442 30.9802 55.711 31.2741 55.8455 31.4601C55.9033 31.5478 55.9783 31.6188 56.0645 31.6676C56.1507 31.7164 56.2456 31.7416 56.3418 31.7411C56.4428 31.7428 56.5428 31.7182 56.6342 31.6691C56.7256 31.6201 56.8061 31.5479 56.8694 31.4581C57.0099 31.2701 57.0802 30.9634 57.0802 30.5379Z" fill="black"/>
    </symbol>


</svg>
